<svg xmlns="http://www.w3.org/2000/svg" width="16.63" height="16.477" viewBox="0 0 16.63 16.477">
    <path data-name="패스 16500" d="M7.5 6.3a.99.99 0 0 0-1.4 1.4l2.8 2.8H6.7a.9.9 0 0 0-.9.9v3.7a.9.9 0 0 0 .9.9h2.8l3 3a.854.854 0 0 0 1.3 0 .864.864 0 0 0 .3-.6v-2.7l3.2 3.2a5.938 5.938 0 0 1-.8.4.792.792 0 0 0-.5.8v.2a.789.789 0 0 0 .8.8h.3a5.3 5.3 0 0 0 1.5-.8l1.3 1.3a1.08 1.08 0 0 0 .7.3.745.745 0 0 0 .7-.3.967.967 0 0 0 0-1.4z" style="fill:#1d1e1d" transform="translate(-5.8 -5.423)"/>
    <path data-name="패스 16501" d="M16.5 7.3a6.38 6.38 0 0 1 3.6 8.3s0 .2-.1.2l1.4 1.4a8.288 8.288 0 0 0 .5-6.9 8.4 8.4 0 0 0-4.8-4.8.809.809 0 0 0-1.1.5v.5a.891.891 0 0 0 .5.8z" style="fill:#1d1e1d" transform="translate(-5.8 -5.423)"/>
    <path data-name="패스 16502" d="M18.2 13.2a4.114 4.114 0 0 0-2.3-3.7v2.3l2.2 2.2v-.8z" style="fill:#1d1e1d" transform="translate(-5.8 -5.423)"/>
    <path data-name="패스 16503" d="M14.1 8.1a.9.9 0 0 0-.9-.9c-.2 0-.5 0-.6.3l-.5.5 2.1 2.1V8.2z" style="fill:#1d1e1d" transform="translate(-5.8 -5.423)"/>
</svg>
